# xmcd
#
# Track frame offsets:
#	150
#	18602
#	37885
#	69852
#	109847
#	142417
#
# Disc length: 2249 seconds
# Revision: 0
# Processed by: cddbd v1.5.2PL0 Copyright (c) Steve Scherf et al.
# Submitted via: dBpowerAMP V12.0
#
DISCID=5008c706
DTITLE=Juliet Roberts - I Want You
DYEAR=1994
DGENRE=House
TTITLE0=I Want You [Monster Album Edit]
TTITLE1=I Want You [Our Tribe Edit]
TTITLE2=I Want You [K-Klass Klub Mix]
TTITLE3=I Want You [Monster Club Mix]
TTITLE4=I Want You [Our Tribe Mix]
TTITLE5=I Want You [K-Klass Dominoe Dub]
EXTD=
EXTT0=
EXTT1=
EXTT2=
EXTT3=
EXTT4=
EXTT5=
PLAYORDER=
